HIERARCHY
ROOT Hips
{
	OFFSET -0.001795 -0.223333 0.028219
	CHANNELS 6 Xposition Yposition Zposition Zrotation Yrotation Xrotation 
	JOINT LeftUpLeg
	{
		OFFSET 0.069520 -0.091406 -0.006815
		CHANNELS 3 Zrotation Yrotation Xrotation
		JOINT LeftLeg
		{
			OFFSET 0.034277 -0.375199 -0.004496
			CHANNELS 3 Zrotation Yrotation Xrotation
			JOINT LeftFoot
			{
				OFFSET -0.013596 -0.397961 -0.043693
				CHANNELS 3 Zrotation Yrotation Xrotation
				JOINT LeftToe
				{
					OFFSET 0.026358 -0.055791 0.119288
					CHANNELS 3 Zrotation Yrotation Xrotation
					End Site
					{
						OFFSET 0.000000 0.000000 0.000000
					}
				}
			}
		}
	}
	JOINT RightUpLeg
	{
		OFFSET -0.067670 -0.090522 -0.004320
		CHANNELS 3 Zrotation Yrotation Xrotation
		JOINT RightLeg
		{
			OFFSET -0.038290 -0.382569 -0.008850
			CHANNELS 3 Zrotation Yrotation Xrotation
			JOINT RightFoot
			{
				OFFSET 0.015774 -0.398415 -0.042312
				CHANNELS 3 Zrotation Yrotation Xrotation
				JOINT RightToe
				{
					OFFSET -0.025372 -0.048144 0.123348
					CHANNELS 3 Zrotation Yrotation Xrotation
					End Site
					{
						OFFSET 0.000000 0.000000 0.000000
					}
				}
			}
		}
	}
	JOINT Spine
	{
		OFFSET -0.002533 0.108963 -0.026696
		CHANNELS 3 Zrotation Yrotation Xrotation
		JOINT Spine1
		{
			OFFSET 0.005487 0.135180 0.001092
			CHANNELS 3 Zrotation Yrotation Xrotation
			JOINT Spine2
			{
				OFFSET 0.001457 0.052922 0.025425
				CHANNELS 3 Zrotation Yrotation Xrotation
				JOINT Neck
				{
					OFFSET -0.002778 0.213870 -0.042857
					CHANNELS 3 Zrotation Yrotation Xrotation
					JOINT Head
					{
						OFFSET 0.005152 0.064970 0.051349
						CHANNELS 3 Zrotation Yrotation Xrotation
						End Site
						{
							OFFSET 0.000000 0.000000 0.000000
						}
					}
				}
				JOINT LeftShoulder
				{
					OFFSET 0.078845 0.121749 -0.034090
					CHANNELS 3 Zrotation Yrotation Xrotation
					JOINT LeftArm
					{
						OFFSET 0.090977 0.030469 -0.008868
						CHANNELS 3 Zrotation Yrotation Xrotation
						JOINT LeftForeArm
						{
							OFFSET 0.259612 -0.012772 -0.027456
							CHANNELS 3 Zrotation Yrotation Xrotation
							JOINT LeftHand
							{
								OFFSET 0.249234 0.008986 -0.001171
								CHANNELS 3 Zrotation Yrotation Xrotation
								End Site
								{
									OFFSET 0.000000 0.000000 0.000000
								}
							}
						}
					}
				}
				JOINT RightShoulder
				{
					OFFSET -0.081759 0.118833 -0.038615
					CHANNELS 3 Zrotation Yrotation Xrotation
					JOINT RightArm
					{
						OFFSET -0.096012 0.032551 -0.009143
						CHANNELS 3 Zrotation Yrotation Xrotation
						JOINT RightForeArm
						{
							OFFSET -0.253742 -0.013329 -0.021401
							CHANNELS 3 Zrotation Yrotation Xrotation
							JOINT RightHand
							{
								OFFSET -0.255298 0.007772 -0.005559
								CHANNELS 3 Zrotation Yrotation Xrotation
								End Site
								{
									OFFSET 0.000000 0.000000 0.000000
								}
							}
						}
					}
				}
			}
		}
	}
}
MOTION
Frames: 6
Frame Time: 0.050000
-0.012972 0.957732 -0.012067 0.334657 0.126124 6.867911 3.599725 -0.507530 -6.786050 -3.245640 0.321116 5.019764 3.993082 10.571136 9.282916 0.000000 0.000000 0.000000 -1.616337 0.835161 -9.027760 0.601744 0.201815 7.735016 -2.168269 -6.803519 3.686480 0.000000 0.000000 0.000000 5.735648 -0.730296 6.095643 -5.474792 1.845425 -25.659321 -2.800890 4.288887 30.888440 8.473473 -1.999603 -30.910708 0.000000 0.000000 0.000000 -15.670498 -1.911747 -0.609151 -60.406944 -4.313479 -7.961437 4.423236 -22.977057 0.274689 0.000000 0.000000 0.000000 22.665261 -10.225698 -6.259907 63.194655 1.011780 -8.428696 -5.875044 29.589726 0.719481 0.000000 0.000000 0.000000 
-0.013408 0.957346 -0.013485 0.456231 0.203805 6.865813 3.462520 -0.516930 -6.859156 -3.234635 0.318526 5.027776 3.751433 10.104779 8.967414 0.000000 0.000000 0.000000 -1.643656 0.836688 -9.066468 0.630606 0.198085 7.797658 -2.174105 -6.769909 3.553472 0.000000 0.000000 0.000000 5.733576 -0.713717 5.915887 -5.351834 1.821822 -25.609204 -2.699319 4.027606 30.842173 8.661631 -2.128516 -30.957890 0.000000 0.000000 0.000000 -15.600324 -1.795277 -0.617858 -60.802153 -4.469058 -7.920413 4.420169 -23.149221 0.293196 0.000000 0.000000 0.000000 22.437803 -9.996103 -6.148743 63.113243 1.340011 -8.236976 -5.945059 29.702326 0.683168 0.000000 0.000000 0.000000 
-0.014200 0.956972 -0.014930 0.446880 0.221794 6.955427 3.464845 -0.521158 -6.916690 -3.106330 0.299164 4.946736 3.687566 9.977081 8.872955 0.000000 0.000000 0.000000 -1.534020 0.841620 -9.070309 0.663093 0.181915 7.488668 -2.343142 -7.204309 3.703715 0.000000 0.000000 0.000000 5.737263 -0.683277 5.561392 -5.101475 1.767038 -25.593460 -2.618739 4.002095 30.754923 8.683141 -2.166396 -30.777009 0.000000 0.000000 0.000000 -15.488388 -1.874334 -0.567964 -60.938415 -4.485389 -7.918306 4.013425 -23.443545 0.377587 0.000000 0.000000 0.000000 22.392138 -9.823732 -6.038322 63.091707 1.815330 -7.981346 -6.092797 29.901188 0.654154 0.000000 0.000000 0.000000 
-0.015165 0.956647 -0.016107 0.490013 0.315749 7.015148 3.399066 -0.516730 -6.792983 -3.066640 0.293349 4.771888 3.556386 9.680081 8.503308 0.000000 0.000000 0.000000 -1.436162 0.842887 -9.044327 0.809962 0.148167 7.249568 -2.494199 -7.523519 3.630374 0.000000 0.000000 0.000000 5.715262 -0.641730 5.109257 -4.983606 1.740722 -25.662750 -2.477427 3.899095 30.784151 8.898488 -2.327182 -30.542149 0.000000 0.000000 0.000000 -15.286297 -1.960933 -0.497028 -60.810240 -4.656769 -7.818445 3.240921 -23.731371 0.536758 0.000000 0.000000 0.000000 22.319511 -9.818161 -6.032477 62.943422 2.304703 -7.716887 -5.696231 30.004640 0.748498 0.000000 0.000000 0.000000 
-0.016130 0.956423 -0.017077 0.546623 0.315718 6.920293 3.322393 -0.499009 -6.479715 -3.009469 0.287729 4.389974 3.510674 9.625145 8.613133 0.000000 0.000000 0.000000 -1.477855 0.822473 -8.832458 0.892441 0.124456 6.936153 -2.534811 -7.674135 3.827963 0.000000 0.000000 0.000000 5.753590 -0.622518 4.887449 -4.894819 1.719474 -25.792331 -2.382856 3.987105 30.772739 8.943026 -2.363412 -30.365395 0.000000 0.000000 0.000000 -15.366231 -1.997484 -0.507847 -60.468727 -4.663865 -7.771293 2.654015 -24.098631 0.656958 0.000000 0.000000 0.000000 22.276500 -9.891606 -6.046440 62.988260 2.540890 -7.592758 -5.379578 30.463868 0.852243 0.000000 0.000000 0.000000 
-0.016960 0.956187 -0.018076 0.566171 0.525560 6.846721 3.215015 -0.494239 -6.343371 -2.908869 0.272372 4.204627 3.461960 9.495335 8.339450 0.000000 0.000000 0.000000 -1.504754 0.812069 -8.737560 1.162424 0.072869 6.768340 -2.834676 -8.321963 3.739970 0.000000 0.000000 0.000000 5.856041 -0.601390 4.582486 -4.923060 1.728235 -25.789351 -2.261607 3.983990 30.660226 9.218114 -2.535568 -30.069247 0.000000 0.000000 0.000000 -15.241655 -2.259155 -0.398624 -60.180152 -4.780198 -7.670742 1.880388 -24.342070 0.808719 0.000000 0.000000 0.000000 22.468020 -9.947388 -6.065291 62.743401 2.818634 -7.431554 -4.859455 30.661977 0.996295 0.000000 0.000000 0.000000 
